<?xml version="1.0" encoding="UTF-8" standalone="no"?>
<svg width="15px" height="15px" viewBox="0 0 15 15" version="1.1" xmlns="http://www.w3.org/2000/svg" xmlns:xlink="http://www.w3.org/1999/xlink">
    <!-- Generator: Sketch 49.1 (51147) - http://www.bohemiancoding.com/sketch -->
    <title>edit icon</title>
    <desc>Created with Sketch.</desc>
    <defs></defs>
    <g id="Desktop" stroke="none" stroke-width="1" fill="none" fill-rule="evenodd">
        <g id="Profile" transform="translate(-1026.000000, -428.000000)" fill="#FFFFFF" fill-rule="nonzero">
            <g id="Header" transform="translate(0.000000, 100.000000)">
                <g id="Meta" transform="translate(0.000000, 300.000000)">
                    <g id="Edit-button" transform="translate(958.000000, 18.000000)">
                        <g id="edit-icon" transform="translate(68.000000, 10.000000)">
                            <path d="M7.01237713,4.45623349 L5.55555127,5.91582172 C5.01882595,6.45356475 4.47903363,6.99130778 3.94537531,7.53519644 C3.81962824,7.66425477 3.72455118,7.83633254 3.68774716,8.00533749 C3.49452604,8.89338169 3.30743893,9.7814259 3.12035182,10.6694701 L3.01607376,11.1611209 C2.96700173,11.4008006 3.03140877,11.6404804 3.19395986,11.8033397 C3.31970694,11.9293252 3.49452604,12 3.67854615,12 C3.73068518,12 3.78282421,11.9938544 3.83496324,11.9846359 L4.37475557,11.8709417 C5.23351608,11.6896455 6.09534359,11.5052764 6.9541041,11.327053 C7.15345922,11.2840336 7.32214432,11.1949219 7.4662934,11.0504994 C9.87695683,8.63219222 12.2876203,6.21695781 14.6982837,3.80479622 C14.8761698,3.62657282 14.9743139,3.41454842 14.9988499,3.15335895 C15.0019169,3.11033951 14.9988499,3.06732007 14.9896489,3.02737344 C14.9743139,2.96591709 14.9620459,2.90138793 14.9467108,2.83993158 C14.9129738,2.6832179 14.8761698,2.5049945 14.8025618,2.33291673 C14.3517125,1.30045011 13.603364,0.562973953 12.5789854,0.148143616 C12.3734963,0.0651775482 12.1557392,0.0375221923 11.9655851,0.0129396538 L11.913446,0.00679401919 C11.6374159,-0.0270069713 11.3859217,0.0651775482 11.1681646,0.286420395 C9.78801378,1.67533382 8.39866195,3.06732007 7.01237713,4.45623349 Z M11.812235,0.747342992 C11.818369,0.747342992 11.821436,0.747342992 11.82757,0.747342992 L11.879709,0.753488627 C12.0391931,0.771925531 12.1864092,0.790362435 12.3029553,0.839527512 C13.1371798,1.17753742 13.7505801,1.77980961 14.1216874,2.62790719 C14.1646254,2.72623734 14.1922284,2.85222285 14.2198314,2.984354 C14.2290324,3.03351907 14.2413004,3.08268415 14.2505014,3.13184923 C14.2382334,3.18715994 14.2167644,3.22403375 14.1738264,3.26398037 C11.760096,5.67614197 9.34943252,8.09444919 6.93876909,10.5096836 C6.89889806,10.5496302 6.86209404,10.5680671 6.80688801,10.5803584 C5.9450605,10.7616546 5.08629999,10.9429508 4.22447248,11.1242471 L3.77055621,11.2195044 L3.85643226,10.8169653 C4.04351937,9.93199395 4.23060648,9.04394974 4.42076059,8.15897836 C4.4268946,8.131323 4.45143061,8.08830356 4.47903363,8.05757538 C5.01269194,7.51675954 5.54635026,6.97901651 6.08307558,6.44434629 L7.53990144,4.98475807 C8.92925327,3.59277183 10.3186051,2.20078558 11.7048899,0.805726521 C11.763163,0.756561444 11.790766,0.747342992 11.812235,0.747342992 Z" id="Shape"></path>
                            <path d="M1.15230807,3.72852912 L6.32436435,3.72852912 C6.5257961,3.72852912 6.68871883,3.56564659 6.68871883,3.36426456 C6.68871883,3.16288253 6.5257961,3 6.32436435,3 L1.15230807,3 C0.515428289,3 0,3.51826259 0,4.15202369 L0,13.8479763 C0,14.4846989 0.518390521,15 1.15230807,15 L10.8476919,15 C11.4845717,15 12,14.4817374 12,13.8479763 L12,8.88746298 C12,8.68608095 11.8370773,8.52319842 11.6356455,8.52319842 C11.4342138,8.52319842 11.271291,8.68608095 11.271291,8.88746298 L11.271291,13.8479763 C11.271291,14.0819348 11.078746,14.2744324 10.8447297,14.2744324 L1.15230807,14.2744324 C0.91829178,14.2744324 0.725746729,14.0819348 0.725746729,13.8479763 L0.725746729,4.15498519 C0.725746729,3.92102665 0.91829178,3.72852912 1.15230807,3.72852912 Z" id="Shape"></path>
                        </g>
                    </g>
                </g>
            </g>
        </g>
    </g>
</svg>