<?xml version="1.0" encoding="UTF-8" standalone="no"?>
<svg width="17px" height="13px" viewBox="0 0 17 13" version="1.1" xmlns="http://www.w3.org/2000/svg" xmlns:xlink="http://www.w3.org/1999/xlink">
    <!-- Generator: Sketch 49.1 (51147) - http://www.bohemiancoding.com/sketch -->
    <title>002-logout</title>
    <desc>Created with Sketch.</desc>
    <defs></defs>
    <g id="Desktop" stroke="none" stroke-width="1" fill="none" fill-rule="evenodd">
        <g id="Feed" transform="translate(-1119.000000, -169.000000)" fill="#878787" fill-rule="nonzero">
            <g id="Menu">
                <g id="sub-menu" transform="translate(1097.000000, 100.000000)">
                    <g id="Logout" transform="translate(22.000000, 66.000000)">
                        <g id="002-logout" transform="translate(0.000000, 3.000000)">
                            <path d="M0,2.16783029 L0,10.8321697 C0,12.0260473 0.944598338,13 2.10249307,13 L8.89412127,13 C10.052016,13 10.9966143,12.0260473 10.9966143,10.8321697 L10.9966143,9.42883996 C10.9966143,9.19146079 10.8104032,8.99946294 10.5801785,8.99946294 C10.3499538,8.99946294 10.1637427,9.19146079 10.1637427,9.42883996 L10.1637427,10.8321697 C10.1637427,11.5547798 9.59156664,12.1447368 8.89073561,12.1447368 L2.10249307,12.1447368 C1.40166205,12.1447368 0.829485996,11.5547798 0.829485996,10.8321697 L0.829485996,2.16783029 C0.829485996,1.44522019 1.40166205,0.855263158 2.10249307,0.855263158 L8.89412127,0.855263158 C9.59495229,0.855263158 10.1671283,1.44522019 10.1671283,2.16783029 L10.1671283,3.57116004 C10.1671283,3.80853921 10.3533395,4.00053706 10.5835642,4.00053706 C10.8137889,4.00053706 11,3.80853921 11,3.57116004 L11,2.16783029 C11,0.973952739 10.0554017,0 8.89750693,0 L2.10249307,0 C0.944598338,2.48041234e-16 0,0.970461869 0,2.16783029 Z" id="Shape"></path>
                            <path d="M13.306338,9.86895476 C13.3908451,9.95631825 13.5,10 13.6126761,10 C13.7253521,10 13.834507,9.95631825 13.9190141,9.86895476 L16.8732394,6.81487259 C17.0422535,6.64014561 17.0422535,6.35985439 16.8732394,6.18512741 L13.9190141,3.13104524 C13.75,2.95631825 13.4788732,2.95631825 13.3098592,3.13104524 C13.1408451,3.30577223 13.1408451,3.58606344 13.3098592,3.76079043 L15.528169,6.05408216 L7.43309859,6.05408216 C7.19366197,6.05408216 7,6.25429017 7,6.50182007 C7,6.74934997 7.19366197,6.94955798 7.43309859,6.94955798 L15.5246479,6.94955798 L13.306338,9.24284971 C13.1373239,9.41393656 13.1373239,9.69786791 13.306338,9.86895476 Z" id="Shape"></path>
                        </g>
                    </g>
                </g>
            </g>
        </g>
    </g>
</svg>