<?xml version="1.0" encoding="UTF-8" standalone="no"?>
<svg width="11px" height="11px" viewBox="0 0 11 11" version="1.1" xmlns="http://www.w3.org/2000/svg" xmlns:xlink="http://www.w3.org/1999/xlink">
    <!-- Generator: Sketch 49.1 (51147) - http://www.bohemiancoding.com/sketch -->
    <title>plus</title>
    <desc>Created with Sketch.</desc>
    <defs></defs>
    <g id="Desktop" stroke="none" stroke-width="1" fill="none" fill-rule="evenodd">
        <g id="Profile" transform="translate(-263.000000, -45.000000)" fill="#FFFFFF" fill-rule="nonzero">
            <g id="Menu">
                <g id="Login-button" transform="translate(150.000000, 33.000000)">
                    <path d="M123.224905,17.0382328 L119.334975,17.0382328 L119.334975,13.1483034 C119.334975,12.7902478 119.044728,12.5 118.686672,12.5 C118.328616,12.5 118.038369,12.7902478 118.038369,13.1483034 L118.038369,17.0381966 L114.148475,17.0381966 C113.79042,17.0381966 113.5001,17.3284444 113.5001,17.6865 C113.5001,18.0445556 113.79042,18.3348034 114.148475,18.3348034 L118.038369,18.3348034 L118.038369,22.2246966 C118.038369,22.5827522 118.328616,22.873 118.686672,22.873 C119.044728,22.873 119.334975,22.5827522 119.334975,22.2246966 L119.334975,18.3348034 L123.224905,18.3348034 C123.58296,18.3348034 123.873208,18.0445194 123.873208,17.6865 C123.873244,17.3284806 123.58296,17.0382328 123.224905,17.0382328 Z" id="plus"></path>
                </g>
            </g>
        </g>
    </g>
</svg>