<?xml version="1.0" encoding="UTF-8" standalone="no"?>
<svg width="131px" height="62px" viewBox="0 0 131 62" version="1.1" xmlns="http://www.w3.org/2000/svg" xmlns:xlink="http://www.w3.org/1999/xlink">
    <!-- Generator: Sketch 49.1 (51147) - http://www.bohemiancoding.com/sketch -->
    <title>Logo</title>
    <desc>Created with Sketch.</desc>
    <defs></defs>
    <g id="Page-1" stroke="none" stroke-width="1" fill="none" fill-rule="evenodd">
        <g id="login" transform="translate(-148.000000, -41.000000)" fill="#FFFFFF">
            <g id="Logo" transform="translate(148.000000, 28.000000)">
                <path d="M0,65.1148 C0,65.1148 2.041,65.3988 5.612,65.8958 C7.395,66.1328 9.56,66.4208 12.042,66.7498 C13.283,66.9048 14.604,67.0678 15.995,67.2408 C17.384,67.4258 18.844,67.6088 20.373,67.7678 C23.426,68.1098 26.726,68.4958 30.221,68.7958 C31.968,68.9508 33.759,69.1398 35.592,69.2808 C37.428,69.3668 39.298,69.4988 41.2,69.6128 C45.005,69.9528 48.922,69.8398 52.901,69.9768 L53.647,69.9938 L53.834,69.9978 L53.881,69.9988 C53.913,69.9998 53.766,70.0008 53.851,69.9988 L53.946,69.9948 L54.326,69.9778 L55.85,69.9098 C56.867,69.8688 57.888,69.8268 58.91,69.7848 C60.947,69.6888 63.035,69.6928 65.019,69.4578 C69.031,69.1178 73.034,68.8118 77.046,68.3178 C79.045,68.0968 81.029,67.8778 82.988,67.6608 C84.954,67.4278 86.896,67.1968 88.805,66.9698 C92.618,66.5188 96.35,66.1468 99.865,65.7838 C103.388,65.4128 106.749,65.2088 109.834,64.9828 C112.925,64.7658 115.782,64.7648 118.297,64.6918 C120.809,64.5698 123.017,64.7348 124.822,64.8028 C128.437,64.9638 130.488,65.1148 130.488,65.1148 C130.488,65.1148 128.432,65.4008 124.859,65.7968 C123.072,66.0008 120.909,66.1898 118.438,66.5998 C117.202,66.7848 115.889,66.9818 114.503,67.1898 C113.12,67.4108 111.662,67.5468 110.147,67.8368 C104.081,68.8678 97.003,70.0728 89.419,71.3628 C85.611,71.9908 81.674,72.6268 77.627,73.1338 C75.597,73.3778 73.6,73.7328 71.505,73.8848 C69.427,74.0728 67.339,74.2618 65.252,74.4498 C63.148,74.6758 61.12,74.6548 59.068,74.7368 C58.045,74.7628 57.024,74.7898 56.006,74.8168 L54.481,74.8508 L54.101,74.8598 L54.005,74.8628 L53.832,74.8618 L53.639,74.8528 L52.868,74.8198 C50.815,74.7208 48.779,74.6238 46.767,74.5278 C45.763,74.4638 44.759,74.4538 43.775,74.3448 C42.792,74.2358 41.815,74.1278 40.847,74.0198 C38.911,73.7978 37.007,73.5988 35.149,73.3608 C33.298,73.0858 31.496,72.7658 29.739,72.4828 C27.987,72.1728 26.269,71.9568 24.634,71.5928 C22.999,71.2448 21.418,70.9088 19.9,70.5868 C16.859,69.9918 14.118,69.2208 11.676,68.6178 C9.234,68.0168 7.138,67.3508 5.401,66.8628 C3.667,66.3578 2.324,65.8858 1.402,65.5998 C0.488,65.2828 0,65.1148 0,65.1148" id="curly"></path>
                <text id="Places" font-family="Lobster-Regular, Lobster" font-size="50" font-weight="normal">
                    <tspan x="0.8779" y="50.1997">Places</tspan>
                </text>
            </g>
        </g>
    </g>
</svg>